Coordinates
version=1
nRows=10
nColumns=40
inDegrees=yes

Units are S.I. units (second, meters, Newtons, ...)
Angles are in degrees.

endheader
time	pelvis_tilt	pelvis_list	pelvis_rotation	pelvis_tx	pelvis_ty	pelvis_tz	hip_flexion_r	hip_adduction_r	hip_rotation_r	knee_angle_r	knee_angle_r_beta	ankle_angle_r	subtalar_angle_r	mtp_angle_r	hip_flexion_l	hip_adduction_l	hip_rotation_l	knee_angle_l	knee_angle_l_beta	ankle_angle_l	subtalar_angle_l	mtp_angle_l	lumbar_extension	lumbar_bending	lumbar_rotation	arm_flex_r	arm_add_r	arm_rot_r	elbow_flex_r	pro_sup_r	wrist_flex_r	wrist_dev_r	arm_flex_l	arm_add_l	arm_rot_l	elbow_flex_l	pro_sup_l	wrist_flex_l	wrist_dev_l
      0.00000000	     -2.99188842	      2.66731272	      1.42276159	     -1.26833628	      0.87739419	     -1.41363990	      4.48938704	     -4.63384674	     -5.58580430	    -58.36594397	     -1.01867789	    -26.54063933	     -7.32373861	      7.56836709	     29.24558138	      2.09789547	      9.37413905	    -36.66484185	     -0.63992221	      6.11810360	     15.15921599	     13.23644469	     -3.44324693	     -7.21419730	     -0.97288152	     -4.75231642	     -8.53619748	     -6.36077863	     58.72490225	     89.95437384	      0.00000000	      0.00000000	    -14.37593542	      8.04170505	     18.62342470	     33.02652489	     89.95437384	      0.00000000	      0.00000000
      0.01000000	     -2.77780943	      3.20673734	      1.44594402	     -1.25740754	      0.87867937	     -1.41637989	      6.35303963	     -5.38087907	     -5.81238277	    -61.41219311	     -1.07184497	    -27.66502543	    -11.10457259	      8.25570273	     27.94226123	      1.29099935	      9.66244041	    -36.35459916	     -0.63450745	      7.04475026	     15.26943445	     13.11293133	     -3.91686882	     -7.83981921	     -1.43524858	     -4.88917272	     -8.45173507	     -6.36118690	     57.90099801	     89.95437384	      0.00000000	      0.00000000	    -13.38737038	      8.49604751	     18.79169676	     33.21345894	     89.95437384	      0.00000000	      0.00000000
      0.02000000	     -2.43196884	      3.42076063	      1.66055899	     -1.24613544	      0.88037174	     -1.41905620	      7.87939578	     -5.67007037	     -6.17266877	    -64.01608641	     -1.11729148	    -27.23338755	    -13.88207781	      8.67336764	     26.50342310	      0.81241660	      9.75855317	    -36.05468120	     -0.62927290	      8.00839334	     14.93900278	     12.86507159	     -4.48256254	     -8.10187564	     -2.12102742	     -4.97143875	     -8.43444646	     -6.21395188	     56.90827665	     89.95437384	      0.00000000	      0.00000000	    -12.47745853	      9.00103268	     18.86248515	     33.45855513	     89.95437384	      0.00000000	      0.00000000
      0.03000000	     -2.11614734	      3.43658777	      1.76467061	     -1.23513873	      0.88218091	     -1.42124834	      9.47436770	     -5.62640804	     -6.32246210	    -66.28775129	     -1.15693951	    -26.09498323	    -15.79835058	      8.96151242	     25.12845121	      0.60509007	      9.76662956	    -35.77874796	     -0.62445695	      8.64723874	     14.68228525	     12.63161684	     -5.03840420	     -8.15256954	     -2.58166866	     -5.10615685	     -8.41930333	     -6.20572591	     55.90711872	     89.95437384	      0.00000000	      0.00000000	    -11.50869291	      9.47196890	     18.98155800	     33.93464196	     89.95437384	      0.00000000	      0.00000000
      0.04000000	     -2.04102218	      3.53897150	      1.74812234	     -1.22424812	      0.88364638	     -1.42335981	     11.52495900	     -5.64563414	     -6.29480672	    -68.64984940	     -1.19816590	    -22.79795713	    -16.51991355	     19.41604593	     23.98855392	      0.37304278	     10.03335961	    -35.40076890	     -0.61785998	      9.14046875	     14.63110881	     11.99206633	     -5.27245260	     -8.28233381	     -2.95737315	     -5.32930176	     -8.49678079	     -6.03248505	     54.99811063	     89.95437384	      0.00000000	      0.00000000	    -10.64518228	      9.89479586	     19.25590770	     34.56754077	     89.95437384	      0.00000000	      0.00000000
      0.05000000	     -1.78182791	      3.31874571	      1.82733946	     -1.21310386	      0.88549509	     -1.42533173	     13.06851120	     -5.18719983	     -6.25003302	    -70.27201420	     -1.22647802	    -20.45249451	    -17.05420735	     18.84137175	     22.69323219	      0.48903752	     10.04329407	    -35.11948521	     -0.61295065	      9.79069898	     14.20665471	     11.65553027	     -5.68904455	     -8.03880659	     -3.32539030	     -5.57524342	     -8.60482800	     -5.90331780	     53.96935616	     89.95437384	      0.00000000	      0.00000000	     -9.69004743	     10.31974969	     19.39181018	     35.17568150	     89.95437384	      0.00000000	      0.00000000
      0.06000000	     -1.61802539	      3.02015537	      1.90469502	     -1.20206495	      0.88709078	     -1.42715245	     14.75235256	     -4.60015791	     -6.17911377	    -71.65356128	     -1.25059057	    -17.55732321	    -17.07699015	     18.19009485	     21.52475027	      0.72971981	     10.11838358	    -34.85359924	     -0.60831006	     10.42169788	     13.86068022	     11.27749264	     -5.97701285	     -7.70757083	     -3.67005124	     -5.83673381	     -8.76022965	     -5.73462168	     52.99888047	     89.95437384	      0.00000000	      0.00000000	     -8.78176051	     10.70398268	     19.68776145	     35.97702821	     89.95437384	      0.00000000	      0.00000000
      0.07000000	     -1.53874542	      2.66648777	      2.06030565	     -1.19124366	      0.88863350	     -1.42918352	     16.47140116	     -4.03187664	     -6.23907055	    -72.65823060	     -1.26812535	    -15.61312525	    -16.88641314	     17.63951488	     20.45870520	      0.97822312	     10.05330845	    -34.49063611	     -0.60197516	     10.87610653	     13.44665835	     10.93481209	     -6.19074056	     -7.29449650	     -3.99898839	     -6.10761418	     -8.92755382	     -5.64337418	     51.92191876	     89.95437384	      0.00000000	      0.00000000	     -7.82614611	     11.06610526	     19.91628256	     36.88556693	     89.95437384	      0.00000000	      0.00000000
      0.08000000	     -1.48654915	      2.31977257	      2.29122116	     -1.18006399	      0.89000551	     -1.43116947	     18.11499490	     -3.51950278	     -6.39725951	    -73.31197556	     -1.27953535	    -13.86248831	    -16.50558139	     17.12338342	     19.41024836	      1.23600824	     10.03715606	    -34.11446733	     -0.59540978	     11.31462582	     13.08200031	     10.57872107	     -6.30873194	     -6.88752059	     -4.39213376	     -6.42989509	     -9.06279075	     -5.67978477	     50.83142333	     89.95437384	      0.00000000	      0.00000000	     -6.99526059	     11.44135004	     20.19443003	     37.95845424	     89.95437384	      0.00000000	      0.00000000
      0.09000000	     -1.47295644	      1.96155394	      2.59383380	     -1.16905001	      0.89124548	     -1.43332985	     19.76508712	     -3.06114567	     -6.67168758	    -73.69646400	     -1.28624594	    -12.15925867	    -16.01486724	     16.61724109	     18.38548247	      1.47195440	      9.97184742	    -33.66261143	     -0.58752340	     11.75486644	     12.70518837	     10.19638702	     -6.39313092	     -6.45155418	     -4.83179579	     -6.78408645	     -9.24206784	     -5.63110958	     49.76159034	     89.95437384	      0.00000000	      0.00000000	     -6.17837509	     11.75485420	     20.53301676	     39.18984765	     89.95437384	      0.00000000	      0.00000000
